HIERARCHY
ROOT SpineBase
{
  OFFSET 0.000000 0.000000 0.000000
  CHANNELS 6 Xposition Yposition Zposition Zrotation Xrotation Yrotation
  JOINT SpineMid
  {
    OFFSET 0.000000 30.482801 0.000000
    CHANNELS 3 Zrotation Xrotation Yrotation
    JOINT SpineShoulder
    {
      OFFSET 0.030328 22.646253 -0.796643
      CHANNELS 3 Zrotation Xrotation Yrotation
      JOINT Neck
      {
        OFFSET 0.024451 7.489600 -0.596574
        CHANNELS 3 Zrotation Xrotation Yrotation
        JOINT Head
        {
          OFFSET -3.745033 13.947701 -0.628363
          CHANNELS 3 Zrotation Xrotation Yrotation
          End Site
          {
            OFFSET 0 0 0
          }
        }
      }
      JOINT ShoulderLeft
      {
        OFFSET -16.936116 -3.901273 6.702027
        CHANNELS 3 Zrotation Xrotation Yrotation
        JOINT ElbowLeft
        {
          OFFSET -1.375535 -26.735706 0.856898
          CHANNELS 3 Zrotation Xrotation Yrotation
          JOINT WristLeft
          {
            OFFSET 2.531755 -22.021068 -6.415378
            CHANNELS 3 Zrotation Xrotation Yrotation
            JOINT HandLeft
            {
              OFFSET 1.964152 -5.865577 -1.726449
              CHANNELS 3 Zrotation Xrotation Yrotation
              JOINT HandTipLeft
              {
                OFFSET 0.303472 -7.216269 -1.601612
                CHANNELS 3 Zrotation Xrotation Yrotation
                End Site
                {
                  OFFSET 0 0 0
                }
              }
              JOINT ThumbLeft
              {
                OFFSET -2.643745 -1.489602 -2.431210
                CHANNELS 3 Zrotation Xrotation Yrotation
                End Site
                {
                  OFFSET 0 0 0
                }
              }
            }
          }
        }
      }
      JOINT ShoulderRight
      {
        OFFSET 15.100403 -2.756165 -9.223625
        CHANNELS 3 Zrotation Xrotation Yrotation
        JOINT ElbowRight
        {
          OFFSET 5.642047 -24.812142 -3.563332
          CHANNELS 3 Zrotation Xrotation Yrotation
          JOINT WristRight
          {
            OFFSET -5.473167 -20.533167 -5.291782
            CHANNELS 3 Zrotation Xrotation Yrotation
            JOINT HandRight
            {
              OFFSET -2.948351 -1.350357 0.764031
              CHANNELS 3 Zrotation Xrotation Yrotation
              JOINT HandTipRight
              {
                OFFSET -3.248865 -8.303331 -2.586924
                CHANNELS 3 Zrotation Xrotation Yrotation
                End Site
                {
                  OFFSET 0 0 0
                }
              }
              JOINT ThumbRight
              {
                OFFSET -1.516663 2.037566 -2.781786
                CHANNELS 3 Zrotation Xrotation Yrotation
                End Site
                {
                  OFFSET 0 0 0
                }
              }
            }
          }
        }
      }
    }
  }
  JOINT HipLeft
  {
    OFFSET -7.242915 0.091251 -0.428740
    CHANNELS 3 Zrotation Xrotation Yrotation
    JOINT KneeLeft
    {
      OFFSET 4.213819 -35.003523 7.553544
      CHANNELS 3 Zrotation Xrotation Yrotation
      JOINT AnkleLeft
      {
        OFFSET 7.437640 -30.604866 7.829748
        CHANNELS 3 Zrotation Xrotation Yrotation
        JOINT FootLeft
        {
          OFFSET -4.438401 -3.711588 -12.806149
          CHANNELS 3 Zrotation Xrotation Yrotation
          End Site
          {
            OFFSET 0 0 0
          }
        }
      }
    }
  }
  JOINT HipRight
  {
    OFFSET 7.298024 1.408449 -6.667024
    CHANNELS 3 Zrotation Xrotation Yrotation
    JOINT KneeRight
    {
      OFFSET 7.729551 -31.538998 -3.592800
      CHANNELS 3 Zrotation Xrotation Yrotation
      JOINT AnkleRight
      {
        OFFSET 4.804262 -34.676020 6.547642
        CHANNELS 3 Zrotation Xrotation Yrotation
        JOINT FootRight
        {
          OFFSET -4.581326 -3.661477 -12.783668
          CHANNELS 3 Zrotation Xrotation Yrotation
          End Site
          {
            OFFSET 0 0 0
          }
        }
      }
    }
  }
}
MOTION
Frames: 13
Frame Time: 0.033333
-0.743370 76.213833 352.262356 -2.319528 -2.390233 24.571713 -0.683712 -0.067840 -24.713853 -0.240005 -0.402744 -0.147015 -4.086992 -0.467517 -0.987582 0.000000 0.000000 0.000000 -2.213558 -4.021889 0.308538 3.295444 8.568429 0.539008 8.456389 -9.208677 -4.634077 -3.623260 3.349944 3.746911 0.000000 0.000000 0.000000 0.000000 0.000000 0.000000 12.754456 -0.709591 -2.283217 -13.837836 3.246660 3.815309 26.850622 2.358653 10.613288 -25.200592 4.429919 -11.507020 0.000000 0.000000 0.000000 0.000000 0.000000 0.000000 -0.085679 1.456148 -25.360312 0.288873 -3.865132 -1.218603 1.209520 5.505583 5.944173 0.000000 0.000000 0.000000 0.399776 -0.088234 -24.975045 1.939753 -1.140344 -0.163466 -0.408681 -0.042098 6.880425 0.000000 0.000000 0.000000
-0.466295 76.185464 352.290899 -1.718687 -2.684675 13.389814 -0.572788 0.110456 -13.493513 0.108940 -0.289168 -0.095340 -8.015880 -1.556634 -1.480541 0.000000 0.000000 0.000000 -1.650668 -2.835688 0.289155 -0.384084 4.226283 1.061081 8.773651 -8.925399 -5.749306 -2.430385 4.389945 4.176788 0.000000 0.000000 0.000000 0.000000 0.000000 0.000000 11.586785 -1.496711 -2.365623 -14.335156 4.453421 4.086552 20.574896 -4.250090 22.482486 -16.639583 9.779270 -20.010611 0.000000 0.000000 0.000000 0.000000 0.000000 0.000000 -1.993135 -0.559657 -14.614823 0.795506 -1.004922 -0.688981 2.013762 2.339796 7.344142 0.000000 0.000000 0.000000 0.264032 2.901420 -13.090616 1.935552 -3.841435 -0.830309 -0.039423 -0.335488 7.037917 0.000000 0.000000 0.000000
0.095761 75.146894 352.304065 -0.428093 -2.501398 9.051984 -0.664686 0.018729 -9.081913 0.457244 0.056734 -0.017101 -13.626382 -3.825735 -2.567950 0.000000 0.000000 0.000000 -3.337448 -2.858313 0.166192 -0.915028 1.693757 0.981491 7.273646 -9.623454 -6.378136 -0.294354 -0.221997 4.274063 0.000000 0.000000 0.000000 0.000000 0.000000 0.000000 8.734024 -1.874627 -2.164938 -13.970038 3.992218 4.239914 22.844960 -9.296082 39.288364 -10.533672 13.513584 -35.653802 0.000000 0.000000 0.000000 0.000000 0.000000 0.000000 -4.509030 -2.455303 -10.721517 1.536701 1.467210 -0.165928 2.216337 0.406793 9.538087 0.000000 0.000000 0.000000 -1.593911 2.439462 -8.787645 1.966166 -2.911128 -0.729774 -1.869078 5.108176 5.673625 0.000000 0.000000 0.000000
0.897710 73.216022 352.224430 1.035537 -2.378828 10.438714 -0.556536 0.146321 -10.385647 0.837813 0.593391 0.065882 -19.932426 -5.556895 -3.681698 0.000000 0.000000 0.000000 -3.972249 -1.669603 0.002480 -4.598472 -4.381306 1.022302 6.279849 -8.048233 -7.059823 2.871577 -3.635924 3.723818 0.000000 0.000000 0.000000 0.000000 0.000000 0.000000 3.938172 -2.844409 -1.826558 -13.218263 3.130695 4.759457 38.493203 -3.974019 55.138774 -20.702454 16.916169 -48.067028 0.000000 0.000000 0.000000 0.000000 0.000000 0.000000 -7.621150 -3.958622 -12.639302 2.419657 4.347850 0.462621 2.385047 -1.755406 12.210576 0.000000 0.000000 0.000000 -4.096689 1.060575 -10.440525 3.006392 -0.817412 -0.343186 -3.544705 9.608345 4.176740 0.000000 0.000000 0.000000
1.774789 71.248353 352.275534 2.846539 -1.821345 21.327714 -0.452266 -0.101217 -21.181000 1.111874 1.178684 0.141014 -27.180217 -8.119185 -5.582674 0.000000 0.000000 0.000000 -1.898386 3.055968 -0.374093 -13.184418 -15.602961 0.030787 5.161277 -6.109408 -8.022678 3.204719 -1.613180 4.343429 0.000000 0.000000 0.000000 0.000000 0.000000 0.000000 -0.030767 -2.356672 -1.461670 -12.842145 -0.562015 4.852028 54.848295 8.057242 64.548963 -35.142009 21.913802 -56.304924 0.000000 0.000000 0.000000 0.000000 0.000000 0.000000 -11.956773 -1.644736 -23.719833 4.114100 5.285079 0.950390 0.908399 -0.969571 15.399898 0.000000 0.000000 0.000000 -7.484879 -0.320178 -21.854752 3.967387 2.286169 0.204576 -4.680441 12.716617 3.273022 0.000000 0.000000 0.000000
1.877269 69.685592 352.513854 3.060751 -0.203823 38.615053 -0.034622 0.397350 -38.518810 1.080808 1.300207 0.162636 -33.417529 -14.703805 -10.222163 0.000000 0.000000 0.000000 4.685446 10.260733 -1.355053 -26.118606 -32.250632 -5.201212 4.908909 -2.789898 -9.071907 4.451289 3.478738 5.137051 0.000000 0.000000 0.000000 0.000000 0.000000 0.000000 -2.430663 -3.130369 -0.900409 -12.214036 -3.625565 4.591765 67.974751 18.001713 65.041774 -45.511831 22.161688 -60.564886 0.000000 0.000000 0.000000 0.000000 0.000000 0.000000 -12.544041 2.958368 -40.658837 4.849642 3.897388 0.997157 2.619796 -5.751147 18.163946 0.000000 0.000000 0.000000 -10.588019 -1.854036 -40.141927 5.126934 6.052487 1.053194 -7.476425 15.937302 3.864566 0.000000 0.000000 0.000000
2.253713 67.465230 352.577852 4.623178 2.136366 49.447899 0.511002 0.662761 -49.420622 0.971171 1.411627 0.224121 -40.889658 -19.034926 -14.842256 0.000000 0.000000 0.000000 10.475166 15.277873 -2.719677 -43.160203 -39.254170 -12.328690 6.580310 0.004246 -8.818284 9.316693 1.519243 2.014514 0.000000 0.000000 0.000000 0.000000 0.000000 0.000000 -5.456045 -4.327636 -0.625108 -17.798812 -6.662718 5.214720 82.534550 22.395483 66.115281 -49.729084 28.193296 -65.958082 0.000000 0.000000 0.000000 0.000000 0.000000 0.000000 -14.409369 6.394580 -51.355529 5.689585 3.153140 1.103674 3.721889 -6.038026 14.398229 0.000000 0.000000 0.000000 -16.671109 -2.128404 -51.904763 5.860148 9.903642 1.683862 -6.454128 14.549757 1.494340 0.000000 0.000000 0.000000
2.767387 65.215948 352.420075 7.058023 4.987813 55.311403 0.657170 0.623702 -55.448582 0.800451 1.073201 0.327380 -46.836986 -18.661511 -16.518586 0.000000 0.000000 0.000000 11.035406 18.561141 -3.833429 -53.243054 -44.543605 -19.602154 5.175859 4.522964 -5.964660 13.443695 -2.028778 -1.020946 0.000000 0.000000 0.000000 0.000000 0.000000 0.000000 -8.229257 -4.732293 -0.555451 -16.678622 -9.880210 4.066420 92.563852 27.427697 54.982617 -60.526758 23.700072 -59.772112 0.000000 0.000000 0.000000 0.000000 0.000000 0.000000 -17.612554 9.472944 -57.192430 6.680431 2.569781 1.197961 5.083377 -5.149084 7.738666 0.000000 0.000000 0.000000 -24.126714 -1.549830 -58.559151 5.942282 13.629199 2.249657 -4.495597 11.893924 0.109978 0.000000 0.000000 0.000000
3.393211 63.311252 352.347505 10.168828 7.798526 57.730777 0.631857 0.632238 -58.181712 0.546254 0.699798 0.448244 -50.471628 -15.177054 -15.391984 0.000000 0.000000 0.000000 8.301625 20.715601 -4.709362 -64.597301 -49.462552 -29.465884 4.053342 11.447410 -1.834730 20.509434 -7.665036 -5.313660 0.000000 0.000000 0.000000 0.000000 0.000000 0.000000 -10.660707 -4.182616 -0.512410 -10.883083 -13.327538 2.094933 97.717318 30.116055 38.353132 -69.646887 12.949347 -50.684069 0.000000 0.000000 0.000000 0.000000 0.000000 0.000000 -21.022097 12.693695 -59.534128 7.237932 1.246613 1.067934 9.343296 -7.661293 -4.391642 0.000000 0.000000 0.000000 -31.785509 -0.372910 -61.397398 5.732800 16.986159 2.776676 -1.855994 7.743082 -0.198770 0.000000 0.000000 0.000000
4.124193 61.194385 352.000449 15.216323 10.226190 54.295064 0.653407 0.707923 -55.299922 0.237346 0.241596 0.661024 -53.372069 -8.840316 -11.962154 0.000000 0.000000 0.000000 3.579024 23.231964 -6.168558 -120.598555 -51.340400 -77.631022 11.645146 -3.053848 -32.523359 20.609119 32.343132 2.107272 0.000000 0.000000 0.000000 0.000000 0.000000 0.000000 -14.991962 -5.714264 -1.439036 4.803764 -12.370660 0.113087 89.905745 35.033293 28.157814 -72.677051 3.952405 -47.369122 0.000000 0.000000 0.000000 0.000000 0.000000 0.000000 -28.661005 13.801995 -55.972507 8.005457 2.457477 1.190868 11.281077 -7.737412 -13.767711 0.000000 0.000000 0.000000 -39.129282 0.592375 -57.801352 5.991720 18.708763 2.878619 0.022657 4.831328 1.440864 0.000000 0.000000 0.000000
4.003244 61.222810 352.456174 18.702944 12.681153 48.306662 0.690259 0.651287 -49.931260 -0.110463 -0.400547 0.854344 -53.653264 -1.251210 -7.463261 0.000000 0.000000 0.000000 -7.933497 18.942684 -5.619719 -171.245789 -6.906303 -102.745186 31.678289 10.228674 -109.082650 -50.662449 57.301795 68.452090 0.000000 0.000000 0.000000 0.000000 0.000000 0.000000 -20.268643 -6.240464 -2.087760 20.518013 -12.527753 -1.912074 83.583031 34.642514 12.078730 -75.910257 -10.934569 -36.302710 0.000000 0.000000 0.000000 0.000000 0.000000 0.000000 -34.105534 11.056975 -50.766386 7.404097 2.072601 0.831265 11.897518 -4.572738 -19.487378 0.000000 0.000000 0.000000 -41.090922 0.068477 -51.973444 5.910708 15.160045 2.109297 3.022315 -1.274689 2.571126 0.000000 0.000000 0.000000
3.741457 62.401059 353.242591 20.782197 15.388645 38.933465 0.961984 0.735041 -41.246017 -0.233809 -0.655468 0.977412 -52.613120 4.846532 -4.226366 0.000000 0.000000 0.000000 -13.935190 19.466305 -6.518855 177.909846 4.849587 -23.849223 27.415087 -17.387932 149.808716 -73.411784 41.618658 90.344628 0.000000 0.000000 0.000000 0.000000 0.000000 0.000000 -25.636402 -6.545966 -2.698882 30.922418 -12.266311 -3.642864 74.600750 33.511574 7.868516 -71.316037 -20.882166 -29.903359 0.000000 0.000000 0.000000 0.000000 0.000000 0.000000 -37.979701 3.743098 -43.889474 6.074330 2.152175 0.496787 12.585667 -6.361159 -21.132123 0.000000 0.000000 0.000000 -41.283317 -1.888082 -43.622691 7.546938 9.844810 0.685946 4.733115 -5.549058 1.530945 0.000000 0.000000 0.000000
3.427121 63.581773 353.970364 20.873898 17.655241 34.252762 0.678693 0.766076 -37.001735 -0.257401 -0.423857 0.911910 -48.982086 10.300648 -0.916941 0.000000 0.000000 0.000000 -25.276739 12.391545 -6.905445 -163.692014 52.022788 -169.824652 47.991511 75.732661 -135.963540 -68.743338 32.531725 72.588565 0.000000 0.000000 0.000000 0.000000 0.000000 0.000000 -29.054063 -6.549795 -2.947032 37.281336 -11.816853 -4.790014 63.394993 29.285521 5.520785 -60.666258 -29.646135 -19.997096 0.000000 0.000000 0.000000 0.000000 0.000000 0.000000 -38.155003 -0.211292 -40.994730 5.413231 0.316804 0.073085 11.458270 -2.461614 -18.721387 0.000000 0.000000 0.000000 -41.227725 -3.398709 -39.979404 9.289368 6.917361 -0.054270 4.992691 -7.627474 -0.224683 0.000000 0.000000 0.000000
